<mxfile host="" modified="2020-07-16T02:55:39.381Z" agent="5.0 (Macintosh; Intel Mac OS X 10_14_6) AppleWebKit/537.36 (KHTML, like Gecko) Code/1.44.2 Chrome/78.0.3904.130 Electron/7.1.11 Safari/537.36" etag="ToUu_iemWVDwEQ-PHfrW" version="13.1.3">
    <diagram id="6hGFLwfOUW9BJ-s0fimq" name="Page-1">
        <mxGraphModel dx="615" dy="483" grid="1" gridSize="10" guides="1" tooltips="1" connect="1" arrows="1" fold="1" page="1" pageScale="1" pageWidth="827" pageHeight="1169" math="0" shadow="0">
            <root>
                <mxCell id="0"/>
                <mxCell id="1" parent="0"/>
                <mxCell id="2" value="店家" style="shape=umlLifeline;perimeter=lifelinePerimeter;whiteSpace=wrap;html=1;container=1;collapsible=0;recursiveResize=0;outlineConnect=0;fillColor=#dae8fc;strokeColor=#6c8ebf;gradientColor=#7ea6e0;" vertex="1" parent="1">
                    <mxGeometry x="120" y="80" width="100" height="1080" as="geometry"/>
                </mxCell>
                <mxCell id="17" value="" style="html=1;points=[];perimeter=orthogonalPerimeter;fillColor=#fad7ac;strokeColor=#b46504;" vertex="1" parent="2">
                    <mxGeometry x="45" y="90" width="10" height="950" as="geometry"/>
                </mxCell>
                <mxCell id="3" value="合作廠商(POS)" style="shape=umlLifeline;perimeter=lifelinePerimeter;whiteSpace=wrap;html=1;container=1;collapsible=0;recursiveResize=0;outlineConnect=0;fillColor=#dae8fc;strokeColor=#6c8ebf;gradientColor=#7ea6e0;" vertex="1" parent="1">
                    <mxGeometry x="280" y="80" width="100" height="1080" as="geometry"/>
                </mxCell>
                <mxCell id="7" value="" style="html=1;points=[];perimeter=orthogonalPerimeter;fillColor=#fad7ac;strokeColor=#b46504;" vertex="1" parent="3">
                    <mxGeometry x="45" y="90" width="10" height="80" as="geometry"/>
                </mxCell>
                <mxCell id="28" value="" style="html=1;points=[];perimeter=orthogonalPerimeter;fillColor=#fad7ac;strokeColor=#b46504;" vertex="1" parent="3">
                    <mxGeometry x="45" y="200" width="10" height="440" as="geometry"/>
                </mxCell>
                <mxCell id="72" value="" style="html=1;points=[];perimeter=orthogonalPerimeter;fillColor=#fad7ac;strokeColor=#b46504;" vertex="1" parent="3">
                    <mxGeometry x="45" y="680" width="10" height="160" as="geometry"/>
                </mxCell>
                <mxCell id="87" value="" style="html=1;points=[];perimeter=orthogonalPerimeter;fillColor=#fad7ac;strokeColor=#b46504;" vertex="1" parent="3">
                    <mxGeometry x="45" y="860" width="10" height="180" as="geometry"/>
                </mxCell>
                <mxCell id="4" value="YOWOO Server" style="shape=umlLifeline;perimeter=lifelinePerimeter;whiteSpace=wrap;html=1;container=1;collapsible=0;recursiveResize=0;outlineConnect=0;fillColor=#dae8fc;strokeColor=#6c8ebf;gradientColor=#7ea6e0;" vertex="1" parent="1">
                    <mxGeometry x="440" y="80" width="100" height="1080" as="geometry"/>
                </mxCell>
                <mxCell id="23" value="" style="html=1;points=[];perimeter=orthogonalPerimeter;fillColor=#fad7ac;strokeColor=#b46504;" vertex="1" parent="4">
                    <mxGeometry x="45" y="90" width="10" height="80" as="geometry"/>
                </mxCell>
                <mxCell id="34" value="" style="html=1;points=[];perimeter=orthogonalPerimeter;fillColor=#fad7ac;strokeColor=#b46504;" vertex="1" parent="4">
                    <mxGeometry x="45" y="200" width="10" height="440" as="geometry"/>
                </mxCell>
                <mxCell id="77" value="" style="html=1;points=[];perimeter=orthogonalPerimeter;fillColor=#fad7ac;strokeColor=#b46504;" vertex="1" parent="4">
                    <mxGeometry x="45" y="680" width="10" height="160" as="geometry"/>
                </mxCell>
                <mxCell id="88" value="" style="html=1;points=[];perimeter=orthogonalPerimeter;fillColor=#fad7ac;strokeColor=#b46504;" vertex="1" parent="4">
                    <mxGeometry x="45" y="860" width="10" height="180" as="geometry"/>
                </mxCell>
                <mxCell id="25" value="1.2 回覆驗證token" style="html=1;verticalAlign=bottom;endArrow=open;dashed=1;endSize=8;exitX=0.048;exitY=0.845;exitDx=0;exitDy=0;exitPerimeter=0;" edge="1" source="23" parent="1">
                    <mxGeometry relative="1" as="geometry">
                        <mxPoint x="335" y="238" as="targetPoint"/>
                        <Array as="points">
                            <mxPoint x="400" y="238"/>
                        </Array>
                    </mxGeometry>
                </mxCell>
                <mxCell id="24" value="1.1. 登入：申請驗證" style="html=1;verticalAlign=bottom;endArrow=block;entryX=0.117;entryY=0.366;entryDx=0;entryDy=0;entryPerimeter=0;" edge="1" parent="1">
                    <mxGeometry relative="1" as="geometry">
                        <mxPoint x="338" y="200" as="sourcePoint"/>
                        <mxPoint x="484.16999999999996" y="199.2800000000001" as="targetPoint"/>
                        <Array as="points">
                            <mxPoint x="419" y="200"/>
                            <mxPoint x="469" y="200"/>
                        </Array>
                    </mxGeometry>
                </mxCell>
                <mxCell id="35" value="" style="edgeStyle=orthogonalEdgeStyle;rounded=0;orthogonalLoop=1;jettySize=auto;html=1;" edge="1" parent="1" source="28" target="34">
                    <mxGeometry relative="1" as="geometry">
                        <Array as="points">
                            <mxPoint x="390" y="300"/>
                            <mxPoint x="390" y="300"/>
                        </Array>
                    </mxGeometry>
                </mxCell>
                <mxCell id="36" value="2.1 詢問騎士可取餐時段" style="text;html=1;align=center;verticalAlign=middle;resizable=0;points=[];autosize=1;" vertex="1" parent="1">
                    <mxGeometry x="340" y="280" width="140" height="20" as="geometry"/>
                </mxCell>
                <mxCell id="39" value="2.2 回覆騎士取餐的時段" style="html=1;verticalAlign=bottom;endArrow=open;dashed=1;endSize=8;exitX=0.048;exitY=0.845;exitDx=0;exitDy=0;exitPerimeter=0;" edge="1" parent="1">
                    <mxGeometry x="-0.0101" relative="1" as="geometry">
                        <mxPoint x="334" y="340.4" as="targetPoint"/>
                        <mxPoint x="484.4799999999999" y="340" as="sourcePoint"/>
                        <Array as="points">
                            <mxPoint x="399" y="340.4"/>
                        </Array>
                        <mxPoint as="offset"/>
                    </mxGeometry>
                </mxCell>
                <mxCell id="41" value="3.1 詢價運費" style="text;html=1;align=center;verticalAlign=middle;resizable=0;points=[];autosize=1;" vertex="1" parent="1">
                    <mxGeometry x="360" y="400" width="80" height="20" as="geometry"/>
                </mxCell>
                <mxCell id="42" value="" style="edgeStyle=orthogonalEdgeStyle;rounded=0;orthogonalLoop=1;jettySize=auto;html=1;" edge="1" parent="1">
                    <mxGeometry relative="1" as="geometry">
                        <mxPoint x="335.0000000000001" y="420" as="sourcePoint"/>
                        <mxPoint x="485.0000000000001" y="420" as="targetPoint"/>
                        <Array as="points">
                            <mxPoint x="450.5" y="420"/>
                            <mxPoint x="450.5" y="420"/>
                        </Array>
                    </mxGeometry>
                </mxCell>
                <mxCell id="44" value="3.2 回覆該時段運費" style="html=1;verticalAlign=bottom;endArrow=open;dashed=1;endSize=8;exitX=0.048;exitY=0.845;exitDx=0;exitDy=0;exitPerimeter=0;" edge="1" parent="1">
                    <mxGeometry relative="1" as="geometry">
                        <mxPoint x="334.76" y="450.4" as="targetPoint"/>
                        <mxPoint x="485.2399999999999" y="450" as="sourcePoint"/>
                        <Array as="points">
                            <mxPoint x="399.76" y="450.4"/>
                        </Array>
                    </mxGeometry>
                </mxCell>
                <mxCell id="48" value="透過POS機操作下訂" style="html=1;verticalAlign=bottom;endArrow=block;" edge="1" parent="1">
                    <mxGeometry width="80" relative="1" as="geometry">
                        <mxPoint x="175" y="180" as="sourcePoint"/>
                        <mxPoint x="325" y="180" as="targetPoint"/>
                    </mxGeometry>
                </mxCell>
                <mxCell id="50" value="2.2 顯示騎士可取餐的時段" style="html=1;verticalAlign=bottom;endArrow=open;dashed=1;endSize=8;exitX=0.048;exitY=0.845;exitDx=0;exitDy=0;exitPerimeter=0;" edge="1" parent="1">
                    <mxGeometry relative="1" as="geometry">
                        <mxPoint x="178" y="360" as="targetPoint"/>
                        <mxPoint x="318.4799999999999" y="360" as="sourcePoint"/>
                        <Array as="points">
                            <mxPoint x="233" y="360.4"/>
                        </Array>
                    </mxGeometry>
                </mxCell>
                <mxCell id="55" value="2.3透過POS機選擇取餐時段" style="html=1;verticalAlign=bottom;endArrow=block;" edge="1" parent="1">
                    <mxGeometry x="0.0267" width="80" relative="1" as="geometry">
                        <mxPoint x="173" y="390" as="sourcePoint"/>
                        <mxPoint x="323" y="390" as="targetPoint"/>
                        <mxPoint as="offset"/>
                    </mxGeometry>
                </mxCell>
                <mxCell id="56" value="3.2 顯示運費" style="html=1;verticalAlign=bottom;endArrow=open;dashed=1;endSize=8;exitX=0.048;exitY=0.845;exitDx=0;exitDy=0;exitPerimeter=0;" edge="1" parent="1">
                    <mxGeometry relative="1" as="geometry">
                        <mxPoint x="178" y="470" as="targetPoint"/>
                        <mxPoint x="318.4799999999999" y="470" as="sourcePoint"/>
                        <Array as="points"/>
                    </mxGeometry>
                </mxCell>
                <mxCell id="57" value="3.3確認運費並下單" style="html=1;verticalAlign=bottom;endArrow=block;" edge="1" parent="1">
                    <mxGeometry width="80" relative="1" as="geometry">
                        <mxPoint x="172" y="510" as="sourcePoint"/>
                        <mxPoint x="321.9999999999999" y="510" as="targetPoint"/>
                    </mxGeometry>
                </mxCell>
                <mxCell id="60" value="3.3 建立訂單" style="html=1;verticalAlign=bottom;endArrow=block;entryX=0.117;entryY=0.366;entryDx=0;entryDy=0;entryPerimeter=0;" edge="1" parent="1">
                    <mxGeometry relative="1" as="geometry">
                        <mxPoint x="335.8299999999999" y="520.72" as="sourcePoint"/>
                        <mxPoint x="482" y="520.0000000000001" as="targetPoint"/>
                        <Array as="points">
                            <mxPoint x="416.83000000000004" y="520.72"/>
                            <mxPoint x="466.83000000000004" y="520.72"/>
                        </Array>
                    </mxGeometry>
                </mxCell>
                <mxCell id="65" value="" style="html=1;points=[];perimeter=orthogonalPerimeter;fillColor=#d0cee2;strokeColor=#56517e;" vertex="1" parent="1">
                    <mxGeometry x="330" y="590" width="10" height="60" as="geometry"/>
                </mxCell>
                <mxCell id="66" value="通知訂單變更的狀態" style="html=1;verticalAlign=bottom;endArrow=block;entryX=1;entryY=0;" edge="1" target="65" parent="1" source="34">
                    <mxGeometry relative="1" as="geometry">
                        <mxPoint x="489.5000000000001" y="583" as="sourcePoint"/>
                        <Array as="points">
                            <mxPoint x="410" y="590"/>
                        </Array>
                    </mxGeometry>
                </mxCell>
                <mxCell id="67" value="收到通知的回覆" style="html=1;verticalAlign=bottom;endArrow=open;dashed=1;endSize=8;exitX=1;exitY=0.95;" edge="1" source="65" parent="1" target="34">
                    <mxGeometry relative="1" as="geometry">
                        <mxPoint x="480" y="645" as="targetPoint"/>
                    </mxGeometry>
                </mxCell>
                <mxCell id="69" value="3.4 回覆訂單狀態與結果" style="html=1;verticalAlign=bottom;endArrow=open;dashed=1;endSize=8;exitX=0.048;exitY=0.845;exitDx=0;exitDy=0;exitPerimeter=0;" edge="1" parent="1">
                    <mxGeometry relative="1" as="geometry">
                        <mxPoint x="334.76" y="560.4" as="targetPoint"/>
                        <mxPoint x="485.24" y="560" as="sourcePoint"/>
                        <Array as="points">
                            <mxPoint x="399.76" y="560.4"/>
                        </Array>
                    </mxGeometry>
                </mxCell>
                <mxCell id="70" value="3.4 顯示訂單狀態" style="html=1;verticalAlign=bottom;endArrow=open;dashed=1;endSize=8;" edge="1" parent="1" source="3">
                    <mxGeometry relative="1" as="geometry">
                        <mxPoint x="177" y="570" as="targetPoint"/>
                        <mxPoint x="317.4799999999999" y="570" as="sourcePoint"/>
                        <Array as="points"/>
                    </mxGeometry>
                </mxCell>
                <mxCell id="71" value="&amp;nbsp;顯示訂單狀態" style="html=1;verticalAlign=bottom;endArrow=open;dashed=1;endSize=8;exitX=-0.107;exitY=0.84;exitDx=0;exitDy=0;exitPerimeter=0;" edge="1" parent="1" source="65" target="17">
                    <mxGeometry relative="1" as="geometry">
                        <mxPoint x="180" y="640" as="targetPoint"/>
                        <mxPoint x="320.4799999999998" y="640" as="sourcePoint"/>
                        <Array as="points"/>
                    </mxGeometry>
                </mxCell>
                <mxCell id="75" value="&lt;span style=&quot;color: rgba(0 , 0 , 0 , 0) ; font-family: monospace ; font-size: 0px&quot;&gt;%3CmxGraphModel%3E%3Croot%3E%3CmxCell%20id%3D%220%22%2F%3E%3CmxCell%20id%3D%221%22%20parent%3D%220%22%2F%3E%3CmxCell%20id%3D%222%22%20value%3D%223.3%E7%A2%BA%E8%AA%8D%E9%81%8B%E8%B2%BB%E4%B8%A6%E4%B8%8B%E5%96%AE%22%20style%3D%22html%3D1%3BverticalAlign%3Dbottom%3BendArrow%3Dblock%3B%22%20edge%3D%221%22%20parent%3D%221%22%3E%3CmxGeometry%20width%3D%2280%22%20relative%3D%221%22%20as%3D%22geometry%22%3E%3CmxPoint%20x%3D%22172%22%20y%3D%22510%22%20as%3D%22sourcePoint%22%2F%3E%3CmxPoint%20x%3D%22321.9999999999999%22%20y%3D%22510%22%20as%3D%22targetPoint%22%2F%3E%3C%2FmxGeometry%3E%3C%2FmxCell%3E%3C%2Froot%3E%3C%2FmxGraphModel%3E&lt;/span&gt;" style="text;html=1;align=center;verticalAlign=middle;resizable=0;points=[];autosize=1;" vertex="1" parent="1">
                    <mxGeometry x="237" y="763" width="20" height="20" as="geometry"/>
                </mxCell>
                <mxCell id="76" value="透過POS機查詢訂單資訊" style="html=1;verticalAlign=bottom;endArrow=block;" edge="1" parent="1">
                    <mxGeometry width="80" relative="1" as="geometry">
                        <mxPoint x="172" y="776.66" as="sourcePoint"/>
                        <mxPoint x="321.9999999999999" y="776.66" as="targetPoint"/>
                    </mxGeometry>
                </mxCell>
                <mxCell id="78" value="" style="edgeStyle=orthogonalEdgeStyle;rounded=0;orthogonalLoop=1;jettySize=auto;html=1;" edge="1" parent="1">
                    <mxGeometry relative="1" as="geometry">
                        <mxPoint x="335" y="800" as="sourcePoint"/>
                        <mxPoint x="485" y="800" as="targetPoint"/>
                        <Array as="points">
                            <mxPoint x="460" y="800"/>
                            <mxPoint x="460" y="800"/>
                        </Array>
                    </mxGeometry>
                </mxCell>
                <mxCell id="81" value="4.1 查詢訂單" style="text;html=1;align=center;verticalAlign=middle;resizable=0;points=[];autosize=1;" vertex="1" parent="1">
                    <mxGeometry x="374" y="780" width="80" height="20" as="geometry"/>
                </mxCell>
                <mxCell id="83" value="4.2 回覆訂單資訊" style="html=1;verticalAlign=bottom;endArrow=open;dashed=1;endSize=8;exitX=0.048;exitY=0.845;exitDx=0;exitDy=0;exitPerimeter=0;" edge="1" parent="1">
                    <mxGeometry relative="1" as="geometry">
                        <mxPoint x="334.76" y="840.4" as="targetPoint"/>
                        <mxPoint x="485.24" y="840" as="sourcePoint"/>
                        <Array as="points">
                            <mxPoint x="399.76" y="840.4"/>
                        </Array>
                    </mxGeometry>
                </mxCell>
                <mxCell id="84" value="透過POS機退訂單" style="html=1;verticalAlign=bottom;endArrow=block;" edge="1" parent="1">
                    <mxGeometry width="80" relative="1" as="geometry">
                        <mxPoint x="172" y="960" as="sourcePoint"/>
                        <mxPoint x="321.9999999999999" y="960" as="targetPoint"/>
                    </mxGeometry>
                </mxCell>
                <mxCell id="85" value="5.1 退訂" style="html=1;verticalAlign=bottom;endArrow=block;entryX=0.117;entryY=0.366;entryDx=0;entryDy=0;entryPerimeter=0;" edge="1" parent="1">
                    <mxGeometry relative="1" as="geometry">
                        <mxPoint x="336.91999999999985" y="980.7200000000001" as="sourcePoint"/>
                        <mxPoint x="483.09000000000003" y="980.0000000000002" as="targetPoint"/>
                        <Array as="points">
                            <mxPoint x="467.91999999999996" y="980.72"/>
                        </Array>
                    </mxGeometry>
                </mxCell>
                <mxCell id="86" value="4.2 顯示訂單資訊" style="html=1;verticalAlign=bottom;endArrow=open;dashed=1;endSize=8;exitX=-0.107;exitY=0.84;exitDx=0;exitDy=0;exitPerimeter=0;" edge="1" parent="1">
                    <mxGeometry relative="1" as="geometry">
                        <mxPoint x="170.04" y="850.0000000000001" as="targetPoint"/>
                        <mxPoint x="323.96999999999997" y="850.0000000000001" as="sourcePoint"/>
                        <Array as="points"/>
                    </mxGeometry>
                </mxCell>
                <mxCell id="89" value="5.2 回覆退訂單的結果" style="html=1;verticalAlign=bottom;endArrow=open;dashed=1;endSize=8;exitX=0.048;exitY=0.845;exitDx=0;exitDy=0;exitPerimeter=0;" edge="1" parent="1">
                    <mxGeometry relative="1" as="geometry">
                        <mxPoint x="334.76" y="1020.4000000000001" as="targetPoint"/>
                        <mxPoint x="485.24" y="1020" as="sourcePoint"/>
                        <Array as="points">
                            <mxPoint x="399.76" y="1020.4"/>
                        </Array>
                    </mxGeometry>
                </mxCell>
                <mxCell id="90" value="5.2 顯示訂單結果" style="html=1;verticalAlign=bottom;endArrow=open;dashed=1;endSize=8;exitX=-0.107;exitY=0.84;exitDx=0;exitDy=0;exitPerimeter=0;" edge="1" parent="1">
                    <mxGeometry relative="1" as="geometry">
                        <mxPoint x="170.03999999999996" y="1040" as="targetPoint"/>
                        <mxPoint x="323.9699999999999" y="1040" as="sourcePoint"/>
                        <Array as="points"/>
                    </mxGeometry>
                </mxCell>
            </root>
        </mxGraphModel>
    </diagram>
</mxfile>